<svg xmlns="http://www.w3.org/2000/svg" viewBox="0 0 204.09 56.03"><defs><style>.cls-1{fill:#fff}</style></defs><g id="Layer_2" data-name="Layer 2"><g id="Layer_1-2" data-name="Layer 1"><path class="cls-1" d="M204.09 6h-.24c-.32 1.18-.87 1.26-2 1.26-.65 0-1.26 0-1.26-.72V4.05h1.22c.66 0 .79.44.83 1h.24V2.7h-.24c-.07.58-.23.91-.83.91h-1.22V.81H202c1.06 0 1.21.54 1.26 1.2l.25-.06V.43h-5V.7h.1c.41 0 .78.07.78.63v5.38c0 .55-.37.63-.78.63h-.1v.26h5.32l.26-1.6zm-2.58 6.05a24.74 24.74 0 0 0-3.56-.44c-3.57 0-6.25 2-6.25 5.73 0 6.9 8.65 5.29 8.65 10.73a3.82 3.82 0 0 1-4 3.88c-2.42 0-4.06-2.13-4.56-4.32h-.67l.59 4.27a10.75 10.75 0 0 0 4.47 1c3.44 0 6.86-2.14 6.86-5.93 0-6.73-9-5.23-9-10.67a3.43 3.43 0 0 1 3.51-3.74 3.55 3.55 0 0 1 3.77 3.24h.68l-.47-3.74zm-3.81-7.16h.08v-.26H195v.26h.08c.53 0 .81.2.81.58v1.76a3 3 0 0 1-1.16.18c-1.9 0-2.75-1.8-2.75-3.61 0-2 1-3.21 2.67-3.21 1.24 0 1.78.49 2.08 1.72h.24l-.08-1.73a8 8 0 0 0-2.28-.35 3.64 3.64 0 0 0-3.91 3.67 3.65 3.65 0 0 0 3.89 3.91 8.47 8.47 0 0 0 2.52-.38v-2a.53.53 0 0 1 .59-.58zm-9 1.78A3.81 3.81 0 0 0 189.82 4a3.45 3.45 0 0 0-1-2.62 4.09 4.09 0 0 0-2.88-.95h-3.21V.7h.11c.4 0 .78.07.78.63V6.7c0 .56-.38.64-.78.64h-.11v.26h3.37a3.73 3.73 0 0 0 2.68-.93zm-.22-2.47c0 1.53-.82 3.09-2.63 3.09-.77 0-1.09-.13-1.09-.89V.77h.73c2 0 3 1.08 3 3.46zm-9.95 3.4h3v-.26h-.11c-.4 0-.78-.08-.78-.63V1.33c0-.56.38-.63.78-.63h.11V.43h-3V.7h.1c.41 0 .79.07.79.63v5.38c0 .55-.38.63-.79.63h-.1v.26zm-2.27 0h1.84v-.27a1.09 1.09 0 0 1-1-.62L175.37 4a2 2 0 0 0 1.42-1.79c0-1.2-.79-1.79-2.37-1.79h-3.21V.7h.14c.27 0 .76 0 .76.83v5.21c0 .44-.41.6-.76.6h-.14v.26h3.12v-.26h-.15c-.5 0-.86-.06-.86-.87V4.24h.79l2.13 3.36zM174 4h-.61V.77a5.22 5.22 0 0 1 .69 0 1.45 1.45 0 0 1 1.53 1.55C175.59 3.45 175.1 4 174 4zm-4 .43a2.41 2.41 0 0 0-1.78-.68c.88-.14 1.88-.56 1.88-1.7s-.81-1.62-2.3-1.62h-3.18V.7h.14c.26 0 .75 0 .75.83v5.2c0 .44-.4.61-.75.61h-.14v.26h3.51a2.19 2.19 0 0 0 2.37-2 1.62 1.62 0 0 0-.5-1.22zm-2.71-.81h-.54V.7h.65c.94 0 1.42.47 1.42 1.48s-.54 1.39-1.53 1.39zm1.94 2a1.58 1.58 0 0 1-1.53 1.7c-.73 0-.95-.2-.95-.9V3.89h.69a1.6 1.6 0 0 1 1.79 1.72zm-8.58 2h3v-.28c-.55 0-.84-.07-.89-.63L162.49 2c-.06-1 .08-1.27.88-1.27v-.3h-2c0 .06-2.3 5.43-2.3 5.43S156.71.49 156.69.43h-2v.26h.08a.81.81 0 0 1 .87 1l-.28 4.53c0 .66-.08 1.12-.9 1.15h-.09v.23h2.41v-.26h-.06c-.66 0-1-.11-.92-1.09l.2-4.43s2.57 5.77 2.59 5.83h.22c0-.06 2.48-5.95 2.48-5.95l.22 4.59v.51c0 .49-.35.51-.84.54v.26zM154 7.6v-.26c-.37 0-.62-.2-.79-.69L150.84.43h-.54L148 6.62a1 1 0 0 1-.91.71v.27h2.18v-.27h-.1c-.52 0-.88-.17-.65-.85l.53-1.48h2.26l.56 1.57c.16.5-.05.73-.59.73h-.06v.3zm-2.81-2.91h-2l1-2.79 1 2.79zm-4.05 1.82l-.19-.35a2.85 2.85 0 0 1-2.4 1.14c-1.9 0-2.68-1.68-2.68-3.45 0-2 1-3.22 2.53-3.22a2.1 2.1 0 0 1 2.23 1.84h.24l-.09-1.69a5.47 5.47 0 0 0-2.42-.51 3.84 3.84 0 0 0-2.62 1A3.76 3.76 0 0 0 140.56 4a3.47 3.47 0 0 0 3.78 3.78 3.43 3.43 0 0 0 2.79-1.28zM144 12.13c-1.31 0-2.66 0-4-.06v.76c1.55 0 2.66.06 2.66 2.11V25.6c.09 5 3 7.31 7.8 7.31 5.14 0 7.63-3 7.63-7v-8.37c0-3.57 0-4.71 2.31-4.71v-.76c-1 0-2 .06-3 .06-1.22 0-2.45 0-3.68-.06v.76c2.6.09 2.78 0 2.78 4.8V26c0 2-.47 5.76-5.32 5.76-4.56 0-5.7-3.36-5.7-6.84v-9.98c0-2 1.11-2.08 2.66-2.11v-.76c-1.46 0-2.8.06-4.15.06zm-6 20.34a37.73 37.73 0 0 1 1.2-4.47l-.71-.12c-1.13 3.13-2.42 3.51-5.28 3.66h-1.81c-2.89 0-3-.82-3-4.07v-5h3.13c2.25 0 3.19 0 3.19 2.8h.58c0-.93-.12-2.31-.12-3.24s.06-2.63.12-3.28h-.58c-.09.68-.09 2.52-2.46 2.52h-3.86V13h3.42c2.93 0 4.24.82 4.68 3.56l.58-.14v-4.35c-2.83.06-5.61.06-8.41.06-2 0-4 0-5.91-.06v.76c2.31.09 2.78.21 2.78 2.6v13c0 2.83-.23 3.3-2.78 3.3v.76c2.17-.06 4.33-.06 6.49-.06 2.92 0 5.85.06 8.77.06zM137.82 2l.24-.06V.43h-5V.7h.1c.4 0 .78.08.78.63v5.36c0 .55-.38.63-.78.63h-.1v.26h3.18v-.26h-.09c-.47 0-1 0-1-.63V4h1.26c.74 0 .84.57.85 1h.23V2.77h-.23c0 .37-.1.84-.69.84h-1.42V.81h1.62c.86 0 1 .59 1 1.2zm-5.58 1.8a3.52 3.52 0 0 0-3.8-3.53 3.68 3.68 0 0 0-3.66 3.78 3.57 3.57 0 0 0 3.71 3.67 3.71 3.71 0 0 0 3.75-3.92zm-1.32.2c0 2.23-.76 3.32-2.33 3.32s-2.49-1.9-2.49-3.66c0-.71.17-3 2.32-3 1.62 0 2.5 1.74 2.5 3.38zM122.61.7V.44h-2V.7h.12c.76 0 .67.41.36.87l-1.34 2.14-1.53-2.37C118 1 118 .7 118.58.7h.09V.44h-3V.7h.06c.48 0 .7.29 1 .72l2 2.81v2.2c0 .75-.31.89-.87.89h-.15v.26H121v-.26h-.15c-.55 0-.87-.07-.87-1V4.06l1.81-2.79a1.13 1.13 0 0 1 .84-.57zM119 12.07a25.09 25.09 0 0 0-3.56-.44c-3.57 0-6.26 2-6.26 5.73 0 6.9 8.65 5.29 8.65 10.73a3.81 3.81 0 0 1-4 3.88c-2.43 0-4.06-2.13-4.56-4.32h-.67l.58 4.27a10.79 10.79 0 0 0 4.47 1c3.45 0 6.87-2.14 6.87-5.93 0-6.73-9-5.23-9-10.67a3.43 3.43 0 0 1 3.51-3.74 3.56 3.56 0 0 1 3.77 3.24h.67l-.47-3.75zm-3.9-10.14l.18-1.86h-.23c0 .31-.35.37-.59.37h-4.72a.56.56 0 0 1-.61-.36H109l-.17 1.84h.26c.14-.72.21-1 1-1h1.46v5.49c0 .86-.33.91-.87.91h-.15v.26h3.25v-.26h-.15c-.46 0-.87-.08-.87-.93V.88h1.44c.69 0 .75.62.77 1zm-9.89 5.65h3v-.26h-.1c-.41 0-.78-.08-.78-.63V1.33c0-.55.37-.63.78-.63h.1V.44h-3V.7h.1c.4 0 .78.08.78.63v5.36c0 .55-.38.63-.78.63h-.1v.26zM100.94 2a1.25 1.25 0 0 1 1.35-1.32c.82 0 1.2.56 1.32 1.29h.27l-.1-1.39a8 8 0 0 0-1.49-.17 2.12 2.12 0 0 0-2.36 2.1c0 1.32.94 1.75 1.75 2.18s1.45.7 1.45 1.57a1.22 1.22 0 0 1-1.35 1.22 1.76 1.76 0 0 1-1.71-1.62h-.26l.19 1.55a3.55 3.55 0 0 0 1.69.41 2.27 2.27 0 0 0 2.53-2.13c0-1.33-1-1.78-1.82-2.2-.69-.35-1.44-.68-1.44-1.49zm-3.41 5.58h1.82v-.27a1.1 1.1 0 0 1-1-.62L96.61 4a2 2 0 0 0 1.41-1.78c0-1.2-.78-1.78-2.36-1.78h-3.2V.7h.15c.26 0 .75 0 .75.83v5.19c0 .44-.41.6-.75.6h-.15v.26h3.11v-.26h-.14c-.51 0-.87-.07-.87-.87V4.23h.79l2.13 3.35zm-2.31-3.64h-.61V.78a5.09 5.09 0 0 1 .69-.05 1.45 1.45 0 0 1 1.53 1.55c0 1.16-.5 1.66-1.61 1.66zM91.4 7.57L91.73 6h-.24c-.33 1.18-.87 1.25-2 1.25-.65 0-1.27 0-1.27-.71V4h1.23c.65 0 .78.43.82 1h.24V2.69h-.24c-.07.58-.23.91-.83.91h-1.25V.81h1.42c1.06 0 1.21.54 1.26 1.2l.24-.01V.49h-5V.7h.1c.4 0 .78.08.78.63v5.35c0 .56-.38.63-.78.63h-.1v.26zM80.84 32.41c1.61 0 3.22.06 4.82.06v-.76c-2.92 0-3.12-.64-3.18-2.83-.12-4.42-.38-9.33-.38-13.94 0-1 .17-1.46.56-1.76a3.58 3.58 0 0 1 2-.35v-.76c-.85 0-1.72.06-2.57.06s-1.61 0-2.4-.06c-2.42 5.56-5.26 10.93-7.89 16.4L64 12.07c-.61 0-1.25.06-1.87.06-1 0-2.07 0-3.1-.06v.76a3.07 3.07 0 0 1 2 .47c.41.35.56 1 .56 2 0 4-.21 8-.33 12s-1.4 4.41-3.47 4.41v.76c1.28 0 2.6-.06 3.88-.06s2.43.06 3.63.06v-.76a3.57 3.57 0 0 1-2.37-.5c-.47-.41-.61-1.19-.61-2.63v-1.84l.24-10.58h.06c2.77 5.53 5.58 11 8.06 16.57h.59a30.45 30.45 0 0 1 1.14-2.89l6.89-14.32h.06l.21 13.94c0 1.14-.24 1.7-.76 2a5.3 5.3 0 0 1-2.25.26v.76c1.43 0 2.83-.06 4.26-.06zM85.58.7V.44h-2V.7h.13c.65 0 .83.23.55 1L82.7 6.06 80.85 1.4c-.14-.38 0-.7.46-.7h.19V.44h-3V.7h.06a.79.79 0 0 1 .88.62l2.63 6.28h.46l2.38-6.34c.19-.49.45-.56.67-.56zM75.16 7.58h3v-.26H78c-.41 0-.79-.08-.79-.63V1.33c0-.55.38-.63.79-.63h.1V.44h-3V.7h.1c.4 0 .78.08.78.63v5.36c0 .55-.38.63-.78.63h-.1v.26zM74.2.7h.11V.44h-2.58V.7h.18c.28 0 .91.1.91 1v4.06L68.49.44h-2V.7h.09a.86.86 0 0 1 1 1V6c0 .72-.1 1.36-.94 1.36h-.1v.26H69v-.3h-.1c-.86 0-1-.64-1-1.36v-4.3l4.92 6h.38v-5.6c0-1.25.48-1.36.94-1.36zm-8.6 0h.17V.44h-2.3V.7h.16c.32 0 .76 0 .76.8V5c0 1.51-.67 2.31-2 2.31S60.5 6.56 60.5 5V1.5c0-.8.47-.8.84-.8h.08V.44h-3V.7h.08c.38 0 .81 0 .81.8v3.7c0 1.73.94 2.53 3 2.53 1.79 0 2.66-1 2.66-3V1.5c0-.8.43-.8.69-.8zM58 44a2.7 2.7 0 0 0 2.72 2.69c1.54 0 2.28-1 3.23-2.06.75 1 1.52 2.33 2.94 2.33a3 3 0 0 0 2.36-1.51l-.21-.2a1.92 1.92 0 0 1-1.45.83c-1.38 0-2.07-1.49-2.86-2.39 2.43-2.83 2.27-3.8 4.39-3.8v-.35h-3.56v.35c.29 0 .83 0 .83.43 0 .66-1.42 2.5-1.89 3.05a14.35 14.35 0 0 0-2.83-2.89c.71-.39 1.47-.94 1.47-1.84A1.7 1.7 0 0 0 61.25 37a1.94 1.94 0 0 0-2.07 2 2.1 2.1 0 0 0 1.08 1.77C59 41.57 58 42.36 58 44zm3.35-3.71c-.62-.43-1.3-.87-1.3-1.7a1.1 1.1 0 0 1 1.07-1.19c.75 0 1.14.55 1.14 1.32a1.81 1.81 0 0 1-.91 1.57zm-2.36 3A2.68 2.68 0 0 1 60.56 41a20.5 20.5 0 0 1 3.18 3.27 2.91 2.91 0 0 1-2.34 1.39 2.48 2.48 0 0 1-2.4-2.42zm16.48-6.09h-1.11v.35c.71 0 1.21 0 1.21 1v6.79c0 .76-.54.94-1.21.9v.34H78c2.37 0 3.6-1.08 3.6-2.52 0-1.88-2-2.55-3-2.5 1-.24 2.15-.88 2.15-2.13 0-1.88-2.12-2.17-3.12-2.17h-1.74zm1.42 4.63h.8c1.33 0 2.52.43 2.52 2.35A1.9 1.9 0 0 1 78.1 46c-1.2 0-1.2-.49-1.2-1.09v-3.13zm0-4.2h.56c1.07 0 2 .23 2 1.77s-1 2-2 2h-.55v-3.82zm6.15 4.27a4.8 4.8 0 1 0 4.82-4.93 4.85 4.85 0 0 0-4.82 4.93zm1.47-.39c0-2.42 1.23-4.11 3.18-4.11 2.3 0 3.48 2.75 3.48 4.78 0 2.43-1.24 4.12-3.19 4.12-2.29 0-3.47-2.75-3.47-4.79zM94 36.75l-.15 2.13h.35c.22-.87.28-1.21 1.48-1.21h1.76v7.49c0 .94-.51 1-1.22 1v.34h3.75v-.34c-.71 0-1.22 0-1.22-1v-7.49h2c1.07 0 1 .48 1.07 1.21h.36l.12-2.13h-.28c0 .25-.39.37-.87.37H95.1c-.34 0-.7 0-.85-.37zm9.16-19.12V26c0 2-.47 5.76-5.32 5.76-4.56 0-5.7-3.36-5.7-6.84v-9.98c0-2 1.12-2.08 2.66-2.11v-.76c-1.46 0-2.8.06-4.15.06s-2.66 0-4-.06v.76c1.55 0 2.66.06 2.66 2.11V25.6c.09 5 3 7.31 7.8 7.31 5.15 0 7.63-3 7.63-7v-8.37c0-3.57 0-4.71 2.31-4.71v-.76c-1 0-2 .06-3 .06-1.23 0-2.46 0-3.68-.06v.76c2.6.09 2.77 0 2.77 4.8zM102 46.13v.34h3.2v-.34h-.31c-.47 0-.91 0-.91-.63a6.62 6.62 0 0 1 .36-1.6l.3-.94h3.14l.67 1.95a3 3 0 0 1 .2.77c0 .38-.4.45-.73.45h-.25v.34h3.54v-.34a1.26 1.26 0 0 1-1-.37 12 12 0 0 1-.76-1.95l-2.56-7.06h-.23a1.65 1.65 0 0 1-.78.59 1.27 1.27 0 0 1 0 .35 4 4 0 0 1-.28 1.2l-1.72 4.78c-.17.5-.33 1-.54 1.5-.34.75-.49.86-1.3 1zm2.82-3.71l1.3-3.94 1.43 3.94zm8.23-5.27h-1.24v.35c1.16 0 1.65.42 1.65 1.57v5.38c0 1.71-.61 1.71-1.43 1.71v.34h3.56v-.34c-1.45 0-1.59-.38-1.59-2.23v-5l7 7.69h.31v-7.77c0-1.31.44-1.38 1.26-1.38v-.35h-3.42v.35c1.34 0 1.62.39 1.62 1.62v5.33c-.91-1-2.17-2.31-3.3-3.57-1.53-1.69-2.78-2.91-3.33-3.73h-1.09zm12.12 0h-1.85v.35c.71 0 1.22 0 1.22 1v6.72c0 .94-.51 1-1.22 1v.34h3.75v-.34c-.71 0-1.22 0-1.22-1v-6.78c0-.94.51-1 1.22-1v-.35h-1.9zm3.23 4.49a4.76 4.76 0 0 0 5.11 5 7.45 7.45 0 0 0 3-.71l.31-2-.31-.08a2.73 2.73 0 0 1-2.69 2.32c-2.06 0-4-2-4-4.65 0-3.22 2.23-4.25 3.77-4.25a2.54 2.54 0 0 1 2.87 2.2h.33l-.13-1.92a9.66 9.66 0 0 0-3.16-.71 4.92 4.92 0 0 0-5.07 4.72zm15.13.17a4.87 4.87 0 0 0 5.14 4.86 10.64 10.64 0 0 0 3.48-.76v-.23l-.2-.2v-1.75c0-1 .51-1 1-1v-.33h-3.48v.35c.71 0 1.22 0 1.22 1v2a2.86 2.86 0 0 1-1.81.53c-2.41 0-3.83-2.32-3.83-4.64s1.37-4.26 3.74-4.26a2.89 2.89 0 0 1 3.15 2.17h.29l-.23-1.9a9.72 9.72 0 0 0-3.44-.73 4.84 4.84 0 0 0-5 4.89zm10.09 4.32v.34h3.2v-.34h-.31c-.47 0-.91 0-.91-.63a6.18 6.18 0 0 1 .36-1.6l.29-.94h3.15l.67 1.95a3.51 3.51 0 0 1 .2.77c0 .38-.4.45-.74.45h-.24v.34h3.54v-.34a1.26 1.26 0 0 1-1-.37 13 13 0 0 1-.77-1.95l-2.55-7.06h-.23a1.65 1.65 0 0 1-.78.59 1.27 1.27 0 0 1 0 .35 4.31 4.31 0 0 1-.28 1.2l-1.72 4.78a15.82 15.82 0 0 1-.55 1.5c-.33.75-.48.86-1.29 1zm2.82-3.71l1.3-3.94 1.43 3.94zm9.31-5.27h-2v.35c.71 0 1.22 0 1.22 1v6.79c0 .76-.55.94-1.22.9v.34h3.75v-.34c-.71 0-1.22 0-1.22-1v-3.14h1.22a32.32 32.32 0 0 0 3.08 4.42h2.14v-.34a2 2 0 0 1-1.52-.85c-.57-.64-1.21-1.71-2.43-3.49a2.48 2.48 0 0 0 1.9-2.3c0-1-.56-2.37-3.1-2.37h-1.79zm.49.48a4.52 4.52 0 0 1 .81-.08c1.58 0 2.2.86 2.2 2a2.06 2.06 0 0 1-2.3 2.06 4.17 4.17 0 0 1-.71-.07v-3.91zm8.83-.48h-1.58v.35c.6 0 1.23-.07 1.23 1.14v6.5c0 .91-.42.93-1.23 1v.34h3.74c4.74 0 5.52-3.33 5.52-4.66 0-2.37-1.89-4.69-5.36-4.69h-2.32zm1 .46a9.5 9.5 0 0 1 1.05-.06 4 4 0 0 1 4.19 4.31c0 2-1 4.18-3.84 4.18-.66 0-1.4-.12-1.4-1.15v-7.28zm10-8.73c-.12-4.42-.38-9.33-.38-13.94 0-1 .17-1.46.55-1.76a3.62 3.62 0 0 1 2.05-.35v-.76c-.85 0-1.73.06-2.58.06s-1.6 0-2.39-.06c-2.43 5.56-5.26 10.93-7.89 16.4l-7.86-16.4c-.62 0-1.26.06-1.87.06-1 0-2.08 0-3.1-.06v.76a3.09 3.09 0 0 1 2 .47c.41.35.55 1 .55 2 0 4-.2 8-.32 12s-1.4 4.41-3.48 4.41v.76c1.29 0 2.6-.06 3.89-.06s2.42.06 3.62.06v-.76a3.52 3.52 0 0 1-2.36-.5c-.47-.41-.62-1.19-.62-2.63v-1.84l.23-10.58h.06c2.78 5.53 5.58 11 8.07 16.57h.58c.24-.76.82-2.19 1.14-2.89l6.9-14.32h.06l.2 13.94c0 1.14-.23 1.7-.76 2a5.28 5.28 0 0 1-2.25.26v.76c1.43 0 2.84-.06 4.27-.06 1.61 0 3.21.06 4.82.06v-.76c-2.92 0-3.13-.64-3.18-2.83zm.87 8.27h-2.71v.35c1.06 0 1.28.1 1.28 1.19v6c0 1.3-.11 1.52-1.28 1.52v.34h7a20.64 20.64 0 0 1 .55-2l-.32-.05c-.61 1.3-1.2 1.5-2.46 1.5h-.83c-1.33 0-1.38-.37-1.38-1.86V41.9h1.43c1 0 1.46 0 1.46 1.29h.27c0-.43-.06-1.06-.06-1.49s0-1.2.06-1.49h-.27c0 .3 0 1.15-1.12 1.15h-1.77v-3.81h1.56c1.34 0 1.95.38 2.15 1.64l.26-.07v-2h-3.85zm6.68 0h-1.23v.35c1.15 0 1.65.42 1.65 1.57v5.38c0 1.71-.62 1.71-1.44 1.71v.34h3.57v-.34c-1.45 0-1.6-.38-1.6-2.23v-5l7 7.69h.3v-7.77c0-1.31.45-1.38 1.26-1.38v-.35h-3.41v.35c1.34 0 1.62.39 1.62 1.62v5.33c-.91-1-2.17-2.31-3.31-3.57-1.53-1.69-2.77-2.91-3.32-3.73h-1.1zM4.43 5.62c-.11 0-.17.1-.18.31v.3a2.1 2.1 0 0 0 0 .38c0 .22.07.38.16.38s.25-.19.33-.4a1 1 0 0 0 .07-.37 1 1 0 0 0-.07-.35c-.06-.16-.14-.25-.24-.25"/><path class="cls-1" d="M3 3.2v.14a4.62 4.62 0 0 1-.2 1 1.28 1.28 0 0 0-.05.28.66.66 0 0 0 .14.38.34.34 0 0 0 .11.14l.18.1v.21a1.21 1.21 0 0 0 0 .34 1.89 1.89 0 0 1 .06.47v.18s-.16-.16-.25-.4-.29-.51-.5-.51a1 1 0 0 0-.48.12.77.77 0 0 1 .09.13l.21.22.22.42.26.5a.77.77 0 0 0 .21.26l.25.14c.07 0 .12.1.12.14a.12.12 0 0 1-.13.12h-.31c-.06 0-.09 0-.09.17A1.85 1.85 0 0 0 3.76 9a.33.33 0 0 1 .12.17.1.1 0 0 1-.11.09.49.49 0 0 1-.2-.06h-.11c-.08 0-.13.06-.13.16a2 2 0 0 0 .29.7 1.07 1.07 0 0 0 .52.51l.7.29a.11.11 0 0 1 .06.1.12.12 0 0 1-.09.11h-.46c-.1 0-.14 0-.14.07a1.37 1.37 0 0 0 .23.51c.16.27.31.43.4.43A.12.12 0 0 0 4.9 12l.17-.35a1.25 1.25 0 0 1 .41-.32 1.67 1.67 0 0 1 .43-.17h.28a.14.14 0 0 0 .12-.16V9.74c0-.09 0-.12-.08-.12s-.23 0-.23.06c-.25.37-.42.49-.68.49-.83 0-1.45-1.45-1.45-3.38v-.64a8 8 0 0 0 0-.8 2.49 2.49 0 0 0-.52-1.78l-.22-.21M5 14.56a2.46 2.46 0 0 1-.45-.11l-.29-.13a1.73 1.73 0 0 0-.6-.16.93.93 0 0 0-.64.27l.14.11.31.22.29.23a.43.43 0 0 0 .26.09 1.47 1.47 0 0 0 1-.52M11 17.38a.91.91 0 0 1 .31-.4c.44-.38.64-.65.64-.87v-.34c0-.2 0-.27.14-.27a.09.09 0 0 1 .09.05l.08.18a.13.13 0 0 0 .13.08c.06 0 .15-.07.23-.18l.15-.22a.5.5 0 0 0 .12-.3.48.48 0 0 0 0-.18l-.11-.25a.9.9 0 0 1-.06-.25.14.14 0 0 1 .25-.11l.12.16a.17.17 0 0 0 .12 0 .2.2 0 0 0 .16-.13l.13-.25a.33.33 0 0 0 0-.14s0-.1-.14-.14l-.2-.09a1.13 1.13 0 0 1-.46-1 .47.47 0 0 1 0-.17l.11-.26a.69.69 0 0 0 0-.25.9.9 0 0 0-.15-.48 2.84 2.84 0 0 1-.21-.33c-.09-.24-.13-.31-.21-.31h-.08l-.11.06-.17.09-.2.25-.22.11a.73.73 0 0 0-.25.57c0 .4 0 .52.58 1.43a2 2 0 0 1 .31.89c0 .64-.57 1.09-1.71 1.37l-.72.17A1.21 1.21 0 0 0 8.79 17a1.16 1.16 0 0 1 .69-.13h.26c.21 0 .23 0 .37-.21a1.16 1.16 0 0 1 .51-.43l.25-.11.2-.11h.06q.09 0 .09.06a.51.51 0 0 1-.15.26.82.82 0 0 0-.25.6.6.6 0 0 0 .17.41"/><path class="cls-1" d="M9 15a1.88 1.88 0 0 1 .46.42c.15.21.17.22.32.22h.37c.25-.05.34-.09.34-.15a.19.19 0 0 0-.08-.13l-.17-.16-.13-.2a.84.84 0 0 0-.51-.17A1 1 0 0 0 9 15m5.07.81h.44a.68.68 0 0 0 .68-.6c0-.11-.1-.16-.28-.16-.42 0-.68.24-.84.77M33.2 6.23v.4c0 .25 0 .36.13.36s.26-.19.33-.4a1.44 1.44 0 0 0 .09-.43.68.68 0 0 0-.09-.29c-.07-.17-.14-.25-.22-.25s-.2.17-.23.61"/><path class="cls-1" d="M32 3.2v.14a2.93 2.93 0 0 1-.12.65c-.05.22-.09.34-.09.36a1.27 1.27 0 0 0 0 .28.59.59 0 0 0 .26.51l.18.1v.21a.89.89 0 0 0 0 .34 2 2 0 0 1 .07.47v.18s-.17-.16-.3-.44-.28-.51-.5-.51a1 1 0 0 0-.48.12 3.7 3.7 0 0 1 .45.81c.25.55.34.66.73.86.09 0 .14.1.14.14s-.05.12-.14.12h-.33c-.06 0-.09 0-.09.18A1.88 1.88 0 0 0 32.75 9c.08.06.13.11.13.16a.1.1 0 0 1-.05.07.09.09 0 0 1-.08 0 .42.42 0 0 1-.18-.06h-.12c-.07 0-.12.07-.12.18a1.74 1.74 0 0 0 .28.68 1.31 1.31 0 0 0 .52.51l.69.29a.12.12 0 0 1 .07.09.13.13 0 0 1-.1.12h-.44c-.09 0-.13 0-.13.07a1.47 1.47 0 0 0 .23.51c.17.29.29.43.38.43s.07 0 .1-.08l.17-.35a1.5 1.5 0 0 1 .4-.32 1.21 1.21 0 0 1 .44-.17c.37 0 .4-.06.4-.22a1.25 1.25 0 0 0 0-.3v-.97c0-.08 0-.12-.07-.12a.2.2 0 0 0-.13.11.92.92 0 0 1-.67.5c-.86 0-1.45-1.39-1.45-3.42v-.56l.05-.73v-.26a2.41 2.41 0 0 0-.54-1.59l-.22-.21M34 14.56a2.49 2.49 0 0 1-.75-.24 1.45 1.45 0 0 0-.58-.16.94.94 0 0 0-.66.27l.14.11.31.22.29.23a.44.44 0 0 0 .27.09 1.47 1.47 0 0 0 1-.52M40 17.38a.78.78 0 0 1 .31-.4c.43-.38.63-.65.63-.87v-.34c0-.2 0-.27.14-.27a.1.1 0 0 1 .1.05l.07.18s.07.07.14.07.18-.08.38-.39a.58.58 0 0 0 .11-.31.51.51 0 0 0 0-.17s0-.12-.11-.25a.68.68 0 0 1-.07-.25.15.15 0 0 1 .14-.16.13.13 0 0 1 .11.05l.13.16h.08a.27.27 0 0 0 .2-.13l.12-.25a.39.39 0 0 0 0-.14.18.18 0 0 0-.13-.14l-.21-.09a1.11 1.11 0 0 1-.47-1 .8.8 0 0 1 0-.2l.09-.26a.75.75 0 0 0-.11-.73 2.44 2.44 0 0 1-.19-.33c-.09-.23-.14-.31-.22-.31a.4.4 0 0 0-.2.08l-.15.09-.22.25-.22.11a.75.75 0 0 0-.25.58c0 .34.07.52.58 1.42a2 2 0 0 1 .32.89c0 .63-.65 1.15-1.7 1.37-1.26.25-1.53.46-1.68 1.27a1.18 1.18 0 0 1 .69-.13h.26c.21 0 .24 0 .37-.21a1.16 1.16 0 0 1 .51-.43l.25-.11.2-.11h.07c.05 0 .08 0 .08.06a.55.55 0 0 1-.15.26.88.88 0 0 0-.23.51.72.72 0 0 0 .16.5"/><path class="cls-1" d="M38 15a1.93 1.93 0 0 1 .47.42c.14.21.16.22.31.22h.37c.26-.05.34-.09.34-.16a.16.16 0 0 0-.06-.12l-.19-.16-.15-.2a.78.78 0 0 0-.49-.17 1.11 1.11 0 0 0-.6.17m5.05.81h.46a.44.44 0 0 0 .3-.07 1.21 1.21 0 0 0 .3-.35.38.38 0 0 0 .06-.18c0-.1-.1-.16-.27-.16-.42 0-.68.23-.85.77m-31.2 30.64a2.38 2.38 0 0 1 .29-.53 1.5 1.5 0 0 0 .34-.76v-.25c0-.23 0-.34.14-.34a.12.12 0 0 1 .08 0l.08.13a.11.11 0 0 0 .11.06.26.26 0 0 0 .17-.13 1 1 0 0 0 .19-.55v-.35c0-.09 0-.13.13-.13s.09 0 .14.14.08.12.12.12a.17.17 0 0 0 .13-.09l.12-.19.09-.14v-.07c0-.05 0-.09-.12-.15-.29-.2-.41-.52-.43-1.1a4.61 4.61 0 0 0-.08-.85s-.1-.26-.28-.67a4.56 4.56 0 0 1-.19-.56c0-.14-.08-.19-.19-.19a.78.78 0 0 0-.74.84 3.76 3.76 0 0 0 .32 1.3 3.68 3.68 0 0 1 .38 1.29c0 .57-.23.82-1 1.1A1.93 1.93 0 0 0 10.17 46l.15-.06.22-.08.25-.06a.53.53 0 0 0 .42-.3l.06-.21a.16.16 0 0 1 .1-.11l.13-.06.14-.07v.07l-.07.2a2.28 2.28 0 0 0 0 .36 1.1 1.1 0 0 0 .27.79M3.51 32.09a1.19 1.19 0 0 1 0 .17 3.13 3.13 0 0 1-.06.4v.32a2.76 2.76 0 0 0 .13.82 1.17 1.17 0 0 1 .1.35v.07c0 .06 0 .11-.06.11a.29.29 0 0 1-.16-.1.88.88 0 0 0-.57-.23h-.27l.08.17.23.58.33.49.34.24.09.09a.23.23 0 0 1 .05.1l-.06.06h-.31a.08.08 0 0 0-.09.07 2.26 2.26 0 0 0 .13.46l.16.45.26.25.28.2a.28.28 0 0 1 .13.18v.08h-.16c-.05 0-.08.05-.08.13a1.38 1.38 0 0 0 .32.6c.24.33.41.44.68.44h.23c.12 0 .18.05.18.14s0 .11-.15.13-.28.09-.28.19a.36.36 0 0 0 .08.17l.13.17c.1.14.22.24.29.24a.43.43 0 0 0 .23-.15 1.07 1.07 0 0 1 .5-.34c.54-.13.65-.19.65-.31a.38.38 0 0 0-.06-.18 1.46 1.46 0 0 1-.28-.65c0-.2 0-.33-.12-.33s-.08.05-.13.12a.68.68 0 0 1-.54.33c-.54 0-1.19-.84-1.51-2a3.2 3.2 0 0 1-.11-.83 4.62 4.62 0 0 1 .11-1c.1-.46.16-.71.17-.76v-.21a1.83 1.83 0 0 0-.9-1.27"/><path class="cls-1" d="M4.62 34.25a2.83 2.83 0 0 0-.22 1c0 .18.06.32.14.32s.06 0 .08-.07l.18-.31a.8.8 0 0 1 .11-.19.58.58 0 0 0 .1-.23.66.66 0 0 0-.39-.53m1.71 7.02l.08.07.13.13c.3.31.34.34.49.34a1.75 1.75 0 0 0 .58-.16c.06 0 .11-.07.11-.1a.6.6 0 0 0-.16-.18l-.17-.15A.86.86 0 0 0 7 41a1.18 1.18 0 0 0-.65.28m3.59 2.79a1.8 1.8 0 0 1 .31.15l.25.16a.66.66 0 0 0 .24 0 .54.54 0 0 0 .19 0l.33-.13.31-.11c.08 0 .14-.07.14-.12s-.07-.05-.17-.08l-.24-.08c-.38-.15-.43-.17-.57-.17a1 1 0 0 0-.79.38m3.93 3.12c.1-.25.17-.29.52-.31s.78-.74.78-1.22v-.09h-.11l-.23.14-.45.2a1.06 1.06 0 0 0-.57.85 1 1 0 0 0 .09.38M33 48.18c.19-.17.22-.19.75-.29a.8.8 0 0 0 .71-.7.61.61 0 0 1 .39-.53.93.93 0 0 0 .2-.15l.08-.07a.07.07 0 0 1 .06.07.68.68 0 0 1-.11.26.61.61 0 0 0-.06.3 1 1 0 0 0 .19.62.81.81 0 0 1 .39-.44 1.24 1.24 0 0 0 .48-1c0-.23.07-.35.13-.35a.07.07 0 0 1 .07 0l.11.24a.1.1 0 0 0 .1.05.43.43 0 0 0 .19-.11l.22-.21a1.17 1.17 0 0 0 .19-.65c0-.13 0-.22.1-.22s.07 0 .08.08l.1.31c0 .08.06.13.11.13s.06 0 .12-.08a1.19 1.19 0 0 0 .22-.23.56.56 0 0 0 .11-.32v-.26a.27.27 0 0 1 .06-.17s0-.06.07-.06a.09.09 0 0 1 .08.07l.06.18a.18.18 0 0 0 .15.12c.08 0 .17-.07.29-.25l.09-.12a.44.44 0 0 0 .11-.2.24.24 0 0 0-.06-.11 1.68 1.68 0 0 1-.34-1.09 2.85 2.85 0 0 1 .79-1.75 2.43 2.43 0 0 0 .56-1.25c0-.09 0-.13-.12-.13a.32.32 0 0 0-.19.06.31.31 0 0 1-.12 0s-.06 0-.1-.06l-.11-.12-.07-.13a.17.17 0 0 0-.13-.08h-.26c-.16 0-.22.06-.22.22v.16a.81.81 0 0 1-.28.49l-.3.26a1.94 1.94 0 0 0-.64 1.33 3 3 0 0 0 .13.68 3.3 3.3 0 0 1 .19.83c0 .75-1.14 1.73-3.25 2.8-1.07.55-1.34.87-1.34 1.61M32 31.89v.38a1.3 1.3 0 0 1 0 .26 1.93 1.93 0 0 0-.07.35 1.24 1.24 0 0 0 .22.75 1.11 1.11 0 0 1 .16.52c0 .06 0 .1-.07.1a.1.1 0 0 1-.07 0L32 34c-.1-.13-.19-.17-.44-.17h-.27a2.59 2.59 0 0 1 .18.54c.13.51.15.54.42.79s.31.28.31.37a.12.12 0 0 1-.11.13h-.16c-.09 0-.16.15-.16.33a1.08 1.08 0 0 0 .09.39 1 1 0 0 0 .11.19l.16.15a.23.23 0 0 1 .06.16c0 .07 0 .14-.1.14A.36.36 0 0 1 32 37h-.11c-.07 0-.11 0-.11.12v.24l.09.4A.78.78 0 0 0 32 38a.75.75 0 0 0 .24.18l.31.14a.15.15 0 0 1 0 .12.1.1 0 0 1-.1.11h-.32c-.15 0-.17 0-.17.13a2 2 0 0 0 0 .24l.07.25c.06.26.15.4.24.4a.24.24 0 0 0 .11-.06 2 2 0 0 1 1-.33 3.14 3.14 0 0 1 .75.08.41.41 0 0 0 .15 0s.05 0 .05-.18v-.28l.06-.48v-.56l-.12.11a.9.9 0 0 1-.7.33c-.72 0-1.13-.81-1.13-2.21a15 15 0 0 1 .25-2.33 3.52 3.52 0 0 0 0-.43 1.71 1.71 0 0 0-.69-1.34"/><path class="cls-1" d="M33 35.37l.14-.14.14-.13a.68.68 0 0 0 .21-.47.42.42 0 0 0-.05-.22c-.06-.12-.16-.22-.22-.22s-.1.12-.12.32v.24l-.05.23v.23m-1.38 6.51A.71.71 0 0 1 32 42a.68.68 0 0 0 .62.31.78.78 0 0 0 .22 0l.2-.06h.16c.07 0 .12-.05.12-.08s-.12-.13-.31-.26a3.6 3.6 0 0 0-.37-.22.86.86 0 0 0-.35-.09 1.08 1.08 0 0 0-.64.2m2.13 4.47a7.16 7.16 0 0 0 .68-.34l.45-.25c.29-.15.42-.26.42-.34s-.17-.16-.47-.16a1 1 0 0 0-1.1.91m6.32-3.76a3.32 3.32 0 0 1 .41-.11h.28a.66.66 0 0 0 .18-.12l.22-.16c.31-.21.33-.22.33-.29s-.13-.13-.39-.13c-.49 0-.79.23-1 .8m-23.7-25.9l-.24-.53a.17.17 0 0 0-.17-.09h-.08a.46.46 0 0 0-.14.33v.34a.32.32 0 0 1-.22.32l-.39.08a1.24 1.24 0 0 0-.24.11l-.18.07v-.11a3.05 3.05 0 0 1 .84-2 2 2 0 0 0 .58-.94c0-.54-.24-.76-1.15-1s-1.39-.79-2.72-2.89c-.22-.35-.47-.61-.57-.61a.12.12 0 0 0-.09.06v.06a.23.23 0 0 0 .08.14 1 1 0 0 1 .25.48.27.27 0 0 1-.27.25l-.35-.06h-.28a1 1 0 0 0-.32.05l-.51.18-.43.17a.68.68 0 0 1-.28.1.11.11 0 0 1-.11-.11.55.55 0 0 1 .06-.19.31.31 0 0 0 0-.13.12.12 0 0 0-.11-.13c-.07 0-.14.09-.34.48l-.2.37a.94.94 0 0 0-.17.55c0 .2 0 .22.17.35a.29.29 0 0 1 .14.22.3.3 0 0 1-.05.14c-.11.2-.29.39-.35.39s-.09-.05-.11-.12l-.07-.21h-.07c-.07 0-.16.09-.16.42a1.47 1.47 0 0 1-.16.54c-.1.21-.28.39-.39.39s-.17-.09-.2-.21l-.09-.35h-.07a.15.15 0 0 0-.14.17v.45a.78.78 0 0 1-.12.41c-.2.35-.4.54-.55.54a.14.14 0 0 1-.15-.11l-.06-.29a.1.1 0 0 0-.1 0c-.07 0-.11 0-.11.13v.12a3.43 3.43 0 0 1 0 .48 1.22 1.22 0 0 1-.14.67l-.28.43a1.39 1.39 0 0 0-.2.66.85.85 0 0 1-.4-.81v-.11l.15-.44v-.06s0-.05-.06-.05-.11.07-.19.2a.53.53 0 0 1-.25.2c-.35.19-.39.22-.42.3l-.06.2c-.07.22-.16.28-.62.4a2.31 2.31 0 0 0-.45.18v-.2a1.29 1.29 0 0 1 .9-1.24c1.65-.82 3.16-2.59 3.16-3.73a1.08 1.08 0 0 0-.08-.38l-.33-.82a6.54 6.54 0 0 1-.3-1.91c0-1 .06-1.25.3-1.25h.13a.48.48 0 0 1 .12.08.39.39 0 0 0 .14 0 .08.08 0 0 0 .07-.08s0-.08-.19-.3a3.54 3.54 0 0 1-.27-.54 2.67 2.67 0 0 1-.18-.62l-.13-.73-.12-.58c-.06-.26-.11-.35-.2-.35s-.09.06-.09.16v.71s-.11 0-.17-.1l-.2-.26a1.38 1.38 0 0 1-.25-.82.39.39 0 0 1 .4-.43.48.48 0 0 1 .23.07.62.62 0 0 0 .18.08c.08 0 .11-.06.11-.19v-.51a.69.69 0 0 1 .08-.25 1.14 1.14 0 0 1 .06-.14l.14.11L7 3l.18.19.1.15c.06 0 .07 0 .07-.16v-.11a.67.67 0 0 1 0-.18 1 1 0 0 1 .16-.31l.19-.22.11-.15.09-.13a1.07 1.07 0 0 1 .55.92 1.35 1.35 0 0 0 0 .26.08.08 0 0 0 .07.08c.06 0 .13-.06.26-.23a1.71 1.71 0 0 1 .62-.46l.07.17.02.18v.57s.05 0 .11.07l.31.09.31.58v.07a.82.82 0 0 1-.08.32c-.12.32-.28.52-.41.52S9.7 5.11 9.7 5v-.4c0-.17 0-.24-.1-.24s-.23.53-.28 1.34a3 3 0 0 1-.25 1.22 1.45 1.45 0 0 0-.26.63v.07h.12l.19-.08h.15c.12 0 .22.09.34.32l.17.14a.82.82 0 0 1 .14.36c0 .08-.07.13-.2.13a.45.45 0 0 1-.31-.15l-.16-.14a.17.17 0 0 0-.11-.06c-.06 0-.1.06-.1.16v.52c0 .3-.07.38-.2.38l-.18-.11a.64.64 0 0 1-.2-.24l-.14-.28a.09.09 0 0 0-.07 0c-.07 0-.11.1-.15.44s-.26.78-.42.78a.17.17 0 0 1-.14-.08l-.15-.41a1 1 0 0 1-.12-.42c0-.35 0-.44-.14-.44S7 8.45 7 8.65a1.26 1.26 0 0 1-.22.41.3.3 0 0 0-.06.14.19.19 0 0 0 .08.12l.31.28a1.25 1.25 0 0 1 .33.47c.15.37.24.48.38.48a.21.21 0 0 0 .17-.1 2.93 2.93 0 0 0 .27-.45.49.49 0 0 1 .44-.28h.35a.49.49 0 0 0 .45-.2 4 4 0 0 1 3.1-1 7.46 7.46 0 0 1 1.93.22l1.06.25a2 2 0 0 0 .37 0 .66.66 0 0 0 .67-.59c0-.55-.29-.72-2.41-1.45s-3-1.53-3-2.77a2 2 0 0 1 2.13-1.92 5.07 5.07 0 0 1 1.65.46L16 3a.64.64 0 0 0 .24 0 .33.33 0 0 0 .31-.36v-.31c0-.08 0-.12.1-.12a.14.14 0 0 1 .1.08 1.26 1.26 0 0 1 .27.68.51.51 0 0 1-.51.51 4.37 4.37 0 0 1-1-.21l-.67-.24a1.18 1.18 0 0 1-.57-.21.38.38 0 0 0-.27.02.07.07 0 0 0-.07.07s.08.11.21.15a3.14 3.14 0 0 1 .51.3 7.14 7.14 0 0 0 .78.38 2.18 2.18 0 0 0 .42.16l.34.06h.09a.07.07 0 0 1 0 .07s0 .06-.07.09l-.19.08a2.16 2.16 0 0 1-.45.07A1.85 1.85 0 0 1 14.8 4l-.73-.45a2.43 2.43 0 0 0-1.17-.38 1.12 1.12 0 0 0-1.15 1.16 1.6 1.6 0 0 0 .28.87c.23.33.47.57.6.57a.09.09 0 0 0 .08-.09 1 1 0 0 0-.16-.31.32.32 0 0 1-.06-.17.07.07 0 0 1 .08-.08.32.32 0 0 1 .19.07l.38.2a1.37 1.37 0 0 1 .63.54l.2.31.24.25a.47.47 0 0 0 .26.15h.07a.59.59 0 0 0 0-.14l-.13-.28a.73.73 0 0 1-.12-.22s.05-.08.13-.08a1.51 1.51 0 0 1 1.25 1c.1.2.19.31.27.31S16 7.12 16 7v-.2a.09.09 0 0 1 .08-.08 1.47 1.47 0 0 1 .52.34 2 2 0 0 1 .63 1.38A1.09 1.09 0 0 1 16 9.58a3.28 3.28 0 0 1-1-.23 4 4 0 0 0-.84-.22h-.51c-.14 0-.2 0-.2.09s0 .07.09.08h.28a.74.74 0 0 1 .31.17 2 2 0 0 1 .74.95l.32 1a1.37 1.37 0 0 0 1.21 1h.06l.39-.08c.07 0 .08 0 .11.13l.1.34v.38c0 .09 0 .13-.09.13h-.07a1.52 1.52 0 0 0-.35-.07.11.11 0 0 0-.12.11.23.23 0 0 0 .08.14l.2.17.23.26a.88.88 0 0 1 .1.54c0 .26-.05.41-.14.41a.27.27 0 0 1-.16-.05c-.14-.08-.15-.09-.2-.09s-.11 0-.11.12a.53.53 0 0 0 0 .13 1.15 1.15 0 0 0 .16.29l.18.25a.74.74 0 0 1 .11.47v.2l-.05.25v.12a1.3 1.3 0 0 0 .06.37.87.87 0 0 1-.55-.46M8.27 5.08c0 .14.1.26.17.26s.14-.17.31-.44a3 3 0 0 0 .43-.9c0-.06 0-.11-.08-.11L8.91 4a1.45 1.45 0 0 1-.53.28c-.17.06-.24.13-.24.26v.13l.07.21v.19zM6.91 3.93a.42.42 0 0 0-.17-.08c-.07 0-.1 0-.1.12V4a1.46 1.46 0 0 0 .24.7l.34.39c.12.13.1.17.14.17A.26.26 0 0 0 7.67 5a1.28 1.28 0 0 1 0-.33v-.1a.18.18 0 0 0-.11-.15l-.26-.14-.42-.34zm1 2h-.24l-.19-.11a.44.44 0 0 0-.22-.07.2.2 0 0 0-.23.2 2.2 2.2 0 0 0 .2.69l.21.5c.17.43.34.62.57.62s.24-.2.37-.54c.31-.78.49-.9.49-1.17s0-.25-.22-.25h-.14l-.25.16zM45.4 16.42l-.25-.53a.17.17 0 0 0-.15-.09c-.11 0-.21.15-.21.35v.39a.32.32 0 0 1-.21.33l-.39.08a1.22 1.22 0 0 0-.25.11l-.17.07V17a3.24 3.24 0 0 1 .84-1.94 2.1 2.1 0 0 0 .54-1.06c0-.56-.22-.75-1.15-1s-1.48-.91-2.7-2.89c-.22-.36-.46-.61-.58-.61a.1.1 0 0 0-.09.06v.06s0 .07.1.14l.14.22a.71.71 0 0 1 .09.27.24.24 0 0 1-.25.24l-.36-.06a1.24 1.24 0 0 0-.27 0 1.13 1.13 0 0 0-.32.05l-.52.18-.42.17a.67.67 0 0 1-.29.1.12.12 0 0 1-.12-.11.62.62 0 0 1 .06-.19.22.22 0 0 0 0-.13.13.13 0 0 0-.11-.14c-.06 0-.09.05-.34.49a2 2 0 0 0-.38 1 .39.39 0 0 0 .17.32c.13.1.14.12.14.2a.32.32 0 0 1 0 .16 1.43 1.43 0 0 1-.14.2c-.1.12-.18.19-.22.19s-.09-.05-.11-.12l-.06-.21h-.08c-.08 0-.14.11-.15.44 0 .52-.28 1-.52 1-.08 0-.16-.09-.2-.21l-.11-.35h-.07a.11.11 0 0 0-.12.12v.58a.68.68 0 0 1-.11.37c-.2.35-.39.54-.54.54a.16.16 0 0 1-.16-.11v-.29h-.11c-.06 0-.1 0-.1.12v.62c0 .4 0 .5-.12.66l-.3.43a1.59 1.59 0 0 0-.15.47s0 .1-.05.19a.87.87 0 0 1-.52-.77v-.11l.17-.44a.07.07 0 0 0-.07-.08s-.1.07-.18.2a.66.66 0 0 1-.25.2c-.32.17-.38.21-.41.3l-.06.2c-.06.21-.16.27-.62.4a2.77 2.77 0 0 0-.54.22c0-.86.24-1.17.87-1.48 1.61-.77 3.15-2.59 3.15-3.72a1.09 1.09 0 0 0-.08-.39l-.33-.82a6.58 6.58 0 0 1-.29-1.92c0-1 .05-1.24.31-1.24h.11a.6.6 0 0 1 .19.06.3.3 0 0 0 .14 0s.06 0 .06-.08 0-.08-.19-.3a3 3 0 0 1-.26-.54 3.34 3.34 0 0 1-.19-.62l-.12-.73-.13-.58c0-.26-.11-.35-.19-.35s-.1.06-.1.16v.12l.05.26a1.84 1.84 0 0 1-.05.34c-.07 0-.23-.17-.35-.37a1.37 1.37 0 0 1-.26-.79.42.42 0 0 1 .4-.46.48.48 0 0 1 .23.07.51.51 0 0 0 .19.08c.07 0 .12-.09.12-.23v-.31a1.24 1.24 0 0 1 .16-.78l.13.11L36 3l.16.19.12.15c.06 0 .07 0 .07-.17V3a.73.73 0 0 1 .17-.46l.19-.22.11-.15.11-.13a1.17 1.17 0 0 1 .53.92V3l-.06.27a.08.08 0 0 0 .08.07c.06 0 .11 0 .25-.23a1.46 1.46 0 0 1 .5-.38l.12-.08.08.17.06.15v.6a.19.19 0 0 0 .09 0c.49.14.64.29.64.65a1.61 1.61 0 0 1-.08.41A1.14 1.14 0 0 1 39 5c-.09.13-.19.2-.25.2s-.06-.18-.06-.4v-.4a.07.07 0 0 0-.07 0c-.09 0-.13.16-.18.61l-.08.73a3.8 3.8 0 0 1-.26 1.22 1.33 1.33 0 0 0-.27.63s0 .06.05.06H38l.2-.08h.16c.12 0 .19.06.33.32l.11.21c.13.23.15.26.15.34s-.08.15-.22.15a.47.47 0 0 1-.31-.15l-.15-.16a.19.19 0 0 0-.12-.06c-.06 0-.09.06-.09.16v.52c0 .3-.08.38-.2.38a.56.56 0 0 1-.19-.11.69.69 0 0 1-.18-.24c-.14-.27-.17-.31-.23-.31s-.1.11-.15.44-.25.78-.42.78a.18.18 0 0 1-.14-.08l-.17-.38a1.09 1.09 0 0 1-.12-.42c0-.38 0-.44-.12-.44a.1.1 0 0 0-.11.07v.14a.51.51 0 0 1-.08.19 1.64 1.64 0 0 1-.14.22.28.28 0 0 0-.08.15s0 .07.08.11l.33.28a1.28 1.28 0 0 1 .31.47c.15.37.23.48.4.48a.19.19 0 0 0 .17-.1l.25-.42a.53.53 0 0 1 .44-.28H38a.56.56 0 0 0 .47-.2 3.85 3.85 0 0 1 3.09-1 7.51 7.51 0 0 1 1.93.22l1 .25a2.05 2.05 0 0 0 .37 0 .63.63 0 0 0 .67-.58c0-.56-.27-.72-2.39-1.46s-3-1.53-3-2.77a2 2 0 0 1 2.14-1.92 5.08 5.08 0 0 1 1.72.35L45 3a.69.69 0 0 0 .26 0c.18 0 .29-.13.29-.34v-.2.01c0-.11 0-.17.1-.17s.17.16.27.34a1 1 0 0 1 .1.43.48.48 0 0 1-.5.5 4.23 4.23 0 0 1-1-.21l-.65-.24-.67-.25h-.26s.08.13.21.17a2.88 2.88 0 0 1 .51.3 4.45 4.45 0 0 0 1.54.6c.1 0 .14 0 .14.1a.13.13 0 0 1-.06.09l-.2.08a1.39 1.39 0 0 1-.44.07A1.93 1.93 0 0 1 43.8 4l-.75-.45a2.36 2.36 0 0 0-1.16-.38 1.13 1.13 0 0 0-1.15 1.16 1.51 1.51 0 0 0 .29.87c.28.38.47.57.58.57a.08.08 0 0 0 .08-.09.78.78 0 0 0-.14-.31.34.34 0 0 1-.08-.18.07.07 0 0 1 .08-.07.4.4 0 0 1 .2.07l.39.2a1.5 1.5 0 0 1 .62.54l.2.31.23.25a.47.47 0 0 0 .26.15h.07a.45.45 0 0 0 0-.13 2.43 2.43 0 0 0-.14-.28.4.4 0 0 1-.11-.23c0-.06.06-.1.16-.1a1.47 1.47 0 0 1 1.22 1c.1.2.19.31.28.31S45 7.11 45 7v-.18a.08.08 0 0 1 .08-.08.28.28 0 0 1 .12 0 2.55 2.55 0 0 1 .73.68 2.06 2.06 0 0 1 .3 1c0 .67-.47 1.08-1.25 1.08a3.32 3.32 0 0 1-1-.23 4.44 4.44 0 0 0-1.37-.26c-.12 0-.17 0-.17.09s0 .07.08.08h.28a.74.74 0 0 1 .33.17 2 2 0 0 1 .74.95l.3 1a1.43 1.43 0 0 0 1.21 1h.06l.41-.08c.1 0 .16.13.21.47l.05.32v.06c0 .09 0 .13-.08.13h-.42c-.07 0-.11 0-.11.12a.16.16 0 0 0 .06.13l.22.17a.84.84 0 0 1 .31.78c0 .29 0 .43-.14.43a.26.26 0 0 1-.15-.05l-.14-.08h-.08c-.06 0-.08 0-.08.12a.67.67 0 0 0 .17.42l.19.25a.49.49 0 0 1 .11.31 4 4 0 0 1-.05.61v.21a.91.91 0 0 0 0 .28.85.85 0 0 1-.54-.46M37.26 5.08c0 .14.09.26.17.26s.17-.22.33-.49a2.43 2.43 0 0 0 .4-.89c0-.06 0-.11-.08-.11l-.19.15a1.71 1.71 0 0 1-.51.28c-.19.07-.25.13-.25.26v.13l.13.26v.14zm-1.37-1.15a.37.37 0 0 0-.17-.08c-.07 0-.1 0-.1.12V4a1.38 1.38 0 0 0 .06.26 1.69 1.69 0 0 0 .2.44l.24.39a.82.82 0 0 0 .34.21.08.08 0 0 0 .08-.06v-.31l.07-.28v-.06a.2.2 0 0 0-.12-.18l-.26-.14-.42-.34zm1 2h-.27l-.18-.11a.47.47 0 0 0-.22-.07A.22.22 0 0 0 36 6a2.06 2.06 0 0 0 .2.65l.2.5c.17.43.35.62.58.62s.36-.16.49-.5l.17-.69c.09-.22.29-.32.29-.47a.4.4 0 0 0-.37-.35h-.09l-.23.16zM15.33 48.4a2.35 2.35 0 0 1-.11-.36 2.61 2.61 0 0 1-.15-.74 2.58 2.58 0 0 1 .18-.83 8.93 8.93 0 0 0 .59-2.76 1.66 1.66 0 0 0-1.07-1.58c-.92-.53-1-.63-1.29-1.59-.37-1.22-.75-2-1-2a.07.07 0 0 0-.08.08.34.34 0 0 0 .1.22.29.29 0 0 1 .1.2.16.16 0 0 1 0 .08.14.14 0 0 1-.09.06.29.29 0 0 1-.15-.06.84.84 0 0 0-.56-.21 3.11 3.11 0 0 0-1.07.32.65.65 0 0 1-.26.06.15.15 0 0 1-.16-.17 1 1 0 0 1 .07-.3.62.62 0 0 0 0-.18c0-.07 0-.12-.08-.12h-.05s0 .12-.12.33l-.13.45a.64.64 0 0 0 0 .22 1.09 1.09 0 0 0 .51.83c.09.07.11.09.11.14a1.28 1.28 0 0 1-.22.44c-.07.1-.15.17-.22.17a.28.28 0 0 1-.12-.05l-.2-.05a.16.16 0 0 0-.09 0 .11.11 0 0 0-.08 0s-.07.06-.07.1a.62.62 0 0 0 .05.18.53.53 0 0 1 .05.2 1 1 0 0 1-.08.33c-.07.17-.17.31-.23.31s-.07-.06-.11-.14-.09-.16-.16-.16a.21.21 0 0 0-.11 0A.26.26 0 0 0 9 42v.42a2 2 0 0 1-.41.95 2.53 2.53 0 0 0-.26.42.79.79 0 0 0-.05.2 1.32 1.32 0 0 1-.28-.87 1.64 1.64 0 0 1 .08-.53.39.39 0 0 0 0-.14.1.1 0 0 0-.08-.1.18.18 0 0 0-.09 0l-.17.14-.22.11c-.08 0-.14.1-.14.14v.14a.32.32 0 0 1-.36.3h-.3a1.31 1.31 0 0 0-.42.08c.15-.75.31-1 .71-1.15l.58-.11c.85-.31 1.35-.75 1.35-1.21a1.7 1.7 0 0 0-.63-1.12l-.72-.57a3 3 0 0 1-.92-2c0-.54.11-.72.42-.72h.13l.31.11a.09.09 0 0 0 .08-.09c0-.06-.09-.16-.24-.26a1.66 1.66 0 0 1-.4-.58 2.2 2.2 0 0 1-.19-.56l-.06-.58c-.06-.56-.2-1-.34-1s-.08.05-.08.14a.8.8 0 0 0 0 .23v.19c0 .12 0 .22-.07.22S6.1 34 6 33.85c-.29-.44-.35-.58-.35-.77s.18-.4.47-.4a.33.33 0 0 1 .19 0c0 .05.08.07.09.07.05 0 .08-.05.08-.14v-.52l.09-.32v-.11a1.22 1.22 0 0 1 .67.45c.06.07.11.11.15.11s.06-.06.07-.14v-.28l.17-.44.17-.28.06-.1.08.09c.32.37.4.52.4.72v.06c0 .24 0 .27.14.27a.15.15 0 0 0 .11 0l.2-.17.25-.21.17-.14.14-.07v.15l.15.32v.53a.18.18 0 0 0 .16.2h.22a.47.47 0 0 1 .43.52.83.83 0 0 1-.06.29l-.14.36c-.07.17-.15.27-.21.27s-.1-.11-.1-.3v-.24c0-.13 0-.25-.09-.25s0 0-.06.1a6 6 0 0 0-.23 1.07v.54c-.05 0-.1.21-.11.47a.56.56 0 0 1-.2.42.93.93 0 0 0-.31.37c0 .06.05.1.12.1l.14-.06.2-.08h.11s.1.08.14.21a2 2 0 0 0 .32.62c.16.16.21.23.21.28a.17.17 0 0 1-.06.12.25.25 0 0 1-.15.08.54.54 0 0 1-.22-.08.84.84 0 0 1-.27-.22s-.07-.07-.11-.07-.08 0-.08.14v.36c0 .25-.12.48-.26.48a.24.24 0 0 1-.16-.08 1.36 1.36 0 0 1-.18-.28.75.75 0 0 1-.1-.27c-.07-.28-.11-.34-.2-.34s-.11 0-.2.33a.8.8 0 0 1-.13.21c-.09.12-.17.19-.22.19s-.25-.2-.32-.45L7.3 37q0-.12-.12-.12c-.07 0-.12.1-.12.26a2.45 2.45 0 0 0 .27 1.06c.12.25.28.45.37.45a.47.47 0 0 0 .16-.11.47.47 0 0 1 .32-.14 1.07 1.07 0 0 1 .56.22l.22.17a.24.24 0 0 0 .13.06s.1-.05.16-.14a2.81 2.81 0 0 1 2.5-1.1 7.83 7.83 0 0 1 2.07.29l1.6.44a2.26 2.26 0 0 0 .42 0c.59 0 1-.29 1-.75s-.5-.84-1.63-1.09c-3-.65-3.93-1.35-3.93-2.9a2 2 0 0 1 2-2 3.93 3.93 0 0 1 1.93.71c.72.47 1 .6 1.23.6a.38.38 0 0 0 .29-.11.64.64 0 0 0 .11-.16.36.36 0 0 0 0-.11l.05-.32.05-.07s.06 0 .09.08l.08.16a.62.62 0 0 1 .06.26.77.77 0 0 1-.8.78 3.12 3.12 0 0 1-1.75-.73 4.44 4.44 0 0 0-.65-.39l-.4-.17h-.23s.08.1.49.31a6.39 6.39 0 0 1 .61.42l.77.59a1.68 1.68 0 0 0 .66.28c.08 0 .14 0 .14.07s-.05.07-.11.1a.64.64 0 0 1-.27.07 2 2 0 0 1-1.22-.41l-.75-.56a1.89 1.89 0 0 0-1-.38 1 1 0 0 0-1 1.08 1.77 1.77 0 0 0 .84 1.38c.38.29.57.42.66.42s.09 0 .09-.06a.62.62 0 0 0-.17-.24.26.26 0 0 1-.11-.17A.09.09 0 0 1 13 35a.16.16 0 0 1 .11 0 2 2 0 0 1 1.15.62c.34.39.37.43.45.43a.14.14 0 0 0 .06-.07v-.06a.53.53 0 0 0-.14-.25.38.38 0 0 1-.09-.18c0-.09.08-.15.21-.15a1.47 1.47 0 0 1 1.06.61l.28.42a.14.14 0 0 0 .12.06s.07 0 .07-.06v-.06l-.06-.16v-.22h.08a.89.89 0 0 1 .39.23 2.11 2.11 0 0 1 .7 1.51 1.27 1.27 0 0 1-1.33 1.24 4.17 4.17 0 0 1-1.59-.38 1.13 1.13 0 0 0-.3-.07c-.07 0-.14 0-.14.08s.09.13.34.21c.43.15.78.81.92 1.74.19 1.29.55 1.77 1.3 1.77h.13c.14 0 .17.06.18.39v.47c0 .46-.05.63-.17.63a.24.24 0 0 1-.12 0c-.1-.07-.13-.08-.19-.08a.12.12 0 0 0-.13.11.29.29 0 0 0 0 .09l.19.23a1.44 1.44 0 0 1 .32.87c0 .21-.07.39-.14.39a.66.66 0 0 1-.27-.15h-.07a.1.1 0 0 0-.08.1.65.65 0 0 0 .18.32 1.75 1.75 0 0 1 .34 1v.48a.52.52 0 0 1-.37-.24l-.23-.26c-.05-.05-.09-.08-.12-.08s-.15.1-.15.19a1.16 1.16 0 0 0 .06.28 1.49 1.49 0 0 1 .08.5 1.1 1.1 0 0 1-.28.8l-.22.24-.09.18a1.29 1.29 0 0 1-.12-.23m-8.16-14.8l.15.22a1.42 1.42 0 0 0 .34.24s.07 0 .1-.13l.06-.24v-.26c0-.2-.09-.28-.52-.39-.1 0-.15 0-.22-.08a.38.38 0 0 0-.16-.05h-.07v.07l.08.23.22.39zm1 1.12a.65.65 0 0 1-.39-.13l-.14-.09a.35.35 0 0 0-.18-.05c-.16 0-.25.11-.25.3a.88.88 0 0 0 .12.43c.3.6.62.95.84.95s.32-.25.52-.62a2 2 0 0 0 .32-.76c0-.16-.09-.25-.21-.25h-.12l-.25.13a.6.6 0 0 1-.27.06zm1.18-1.66a.33.33 0 0 0 0-.1.08.08 0 0 0-.06-.05.43.43 0 0 0-.15.06l-.34.17-.33.09a.17.17 0 0 0-.14.18v.5a.17.17 0 0 0 .17.16.23.23 0 0 0 .11 0 1.59 1.59 0 0 1 .15-.34l.36-.36.16-.26z"/><path class="cls-1" d="M42 42.82v-.1c0-.15 0-.24-.08-.24s-.12.1-.18.25l-.13.31-.12.34-.24.24-.26.15-.11.11a4.46 4.46 0 0 1-.11-.8 1 1 0 0 1 .38-.78l.56-.36a1.36 1.36 0 0 0 .62-1.16c0-.27-.06-.35-.27-.39l-.68-.16a1.82 1.82 0 0 1-1-.95l-.38-.62a.18.18 0 0 0-.12-.08.07.07 0 0 0-.07.07.7.7 0 0 0 .09.23.32.32 0 0 1 .07.19.21.21 0 0 1 0 .12.19.19 0 0 1-.14.08l-.16-.05a1.84 1.84 0 0 0-.77-.22 2.08 2.08 0 0 0-1.1.41 2.74 2.74 0 0 1-.36.17l-.38.14h-.17c-.07 0-.11 0-.13-.08v-.42s0-.08-.06-.08-.06 0-.08.1a3.8 3.8 0 0 1-.21.38 1.6 1.6 0 0 0-.23.73.3.3 0 0 0 0 .16l.13.19a.26.26 0 0 1 0 .15.29.29 0 0 1 0 .16l-.14.2c-.15.21-.21.27-.28.27s-.09 0-.14-.16-.18-.33-.25-.33a.08.08 0 0 0-.08.09l.07.23v.29a.91.91 0 0 1-.31.58.23.23 0 0 1-.14.07s-.07 0-.1-.08-.13-.18-.17-.18 0 .05 0 .1v.2a1 1 0 0 1-.07.3 1.87 1.87 0 0 1-.16.28 1.1 1.1 0 0 1-.25.21.41.41 0 0 1-.12.07.22.22 0 0 1-.1-.07A.13.13 0 0 1 34 43c0-.13 0-.15-.09-.15s-.08.08-.08.32a1.81 1.81 0 0 1-.38.7 3.68 3.68 0 0 0-.23.33 1.2 1.2 0 0 0-.06.18.94.94 0 0 1-.25-.61.66.66 0 0 1 .11-.39.68.68 0 0 0 .11-.26.08.08 0 0 0-.07-.09.45.45 0 0 0-.24.17l-.27.3a1.27 1.27 0 0 1-.17.17.8.8 0 0 1-.26.08h-.3a.72.72 0 0 0-.45.19 1.37 1.37 0 0 1 1-1.35l1-.3a2 2 0 0 0 1.53-1.95 3.36 3.36 0 0 0-.11-.73 3.42 3.42 0 0 1-.09-.94l.11-1.24.14-.89a.45.45 0 0 1 .36-.37.37.37 0 0 1 .17 0 .53.53 0 0 0 .2.08s.06 0 .06-.05 0-.1-.12-.17a2.36 2.36 0 0 1-.61-1.51q-.15-1.23-.36-1.23s-.07 0-.07.09v.72s-.3-.23-.45-.49a1.19 1.19 0 0 1-.19-.51.46.46 0 0 1 .47-.5c.1 0 .12 0 .36.14a.16.16 0 0 0 .1 0s.06-.06.07-.27a1.55 1.55 0 0 1 .22-.74l.06-.13.12.11a1.8 1.8 0 0 1 .25.2l.19.25a.21.21 0 0 0 .11.08c.05 0 .08 0 .08-.11V32a1.42 1.42 0 0 1 .49-1 1.5 1.5 0 0 1 .44.91 1.81 1.81 0 0 1-.05.32v.07s0 .06.09.06.1 0 .32-.28a.7.7 0 0 1 .19-.17l.23-.14.11-.08.05.15.08.19.09.39v.29q0 .09.15.09h.21c.07 0 .14 0 .24.17a.48.48 0 0 1 .12.35 1.16 1.16 0 0 1-.2.64l-.18.22-.18.06v-.14a.58.58 0 0 1 0-.19.52.52 0 0 0 0-.22c0-.09 0-.14-.09-.14s-.05 0-.1.09a1.76 1.76 0 0 0-.31.92 2.25 2.25 0 0 1-.71 1.6c-.07.06-.13.13-.13.17a.07.07 0 0 0 .08.08h.1l.32-.09h.14a.17.17 0 0 1 .08.11c0 .07.07.19.14.35a1.6 1.6 0 0 0 .28.52.26.26 0 0 1 .09.14.43.43 0 0 1-.11.12.21.21 0 0 1-.14.07.46.46 0 0 1-.18-.07.5.5 0 0 1-.17-.15l-.11-.17a.1.1 0 0 0-.07 0c-.06 0-.11.11-.13.28-.07.45-.15.64-.28.64s-.11-.05-.17-.12a1.35 1.35 0 0 1-.24-.5c0-.23-.08-.31-.14-.31s-.1.06-.12.17c-.11.54-.25.81-.4.81s-.37-.41-.37-.85v-.17c0-.17 0-.24-.11-.24a.09.09 0 0 0-.08.06v.87a2.42 2.42 0 0 0 0 .42 1.64 1.64 0 0 0 .16.41c.12.22.32.42.43.42A.19.19 0 0 0 36 39l.16-.2a.57.57 0 0 1 .37-.21.78.78 0 0 1 .34.12.61.61 0 0 0 .22.09c.08 0 .13 0 .22-.12a3.31 3.31 0 0 1 2.63-1 8.94 8.94 0 0 1 2.74.56 3.58 3.58 0 0 0 1 .22c.51 0 .84-.23.84-.58s-.4-.75-1.49-1.2l-1.32-.54c-1.28-.53-1.9-1.24-1.9-2.18A2.19 2.19 0 0 1 42 31.87a4.29 4.29 0 0 1 1.66.41 4.33 4.33 0 0 0 1.39.41c.32 0 .43-.1.43-.38v-.2c0-.08 0-.13.07-.13a.1.1 0 0 1 .07.06.58.58 0 0 1 .1.21 2.56 2.56 0 0 1 .06.44.58.58 0 0 1-.62.58 3.23 3.23 0 0 1-1.39-.5 4 4 0 0 0-.71-.32l-.59-.17h-.18a.07.07 0 0 0-.07.06s0 .06.08.08l.64.27.71.47a3 3 0 0 0 1 .43H45c0 .06-.1.12-.25.16a1.81 1.81 0 0 1-.49.1 2.53 2.53 0 0 1-1.17-.42l-.66-.43-.54-.28a1 1 0 0 0-.4-.08 1.2 1.2 0 0 0-1.2 1.12 1.52 1.52 0 0 0 .4.93 1.75 1.75 0 0 0 .61.5.08.08 0 0 0 .07-.08v-.09a.75.75 0 0 1-.07-.15s0-.06.1-.06a.58.58 0 0 1 .26.06 1.71 1.71 0 0 1 .7.53c.23.34.25.37.35.37s.09 0 .09-.1a.76.76 0 0 0-.13-.3.32.32 0 0 1-.06-.18v-.07a1.77 1.77 0 0 1 .49.18c.48.24.68.44.78.79s.19.44.28.44.08 0 .08-.11a.4.4 0 0 0 0-.15.51.51 0 0 1 0-.17.08.08 0 0 1 .09-.09.53.53 0 0 1 .28.19 2 2 0 0 1 .62 1.28 1.35 1.35 0 0 1-1.36 1.33 4.6 4.6 0 0 1-1.57-.35 3.85 3.85 0 0 0-.8-.28c-.09 0-.15 0-.15.1a.16.16 0 0 0 .1.12l.35.24a5.77 5.77 0 0 0 .39.51l.44.53a1.31 1.31 0 0 0 .87.42h.24v.07a2.33 2.33 0 0 1-.06.24c-.07.24-.14.34-.24.34a.19.19 0 0 1-.12-.06c-.09-.08-.16-.13-.21-.13a.09.09 0 0 0-.08.1.41.41 0 0 0 0 .16 1.3 1.3 0 0 1 .14.43v.15c0 .09-.11.3-.18.3s-.09 0-.16-.12a.24.24 0 0 0-.16-.11h-.06a.11.11 0 0 0 0 .07.33.33 0 0 0 0 .14.61.61 0 0 1 .08.3 1.2 1.2 0 0 1-.23.77 1.34 1.34 0 0 0-.17.27l-.07.21-.06.18a1.23 1.23 0 0 1-.2-.66m-6.62-10s-.07 0-.07.06V33a3.63 3.63 0 0 0 .25.62c.17.3.28.46.39.46s.21-.05.23-.26a.79.79 0 0 1 0-.22.67.67 0 0 0 0-.18c0-.09-.09-.12-.33-.22l-.2-.2-.22-.14zm2.29.29a.33.33 0 0 0 0-.1.08.08 0 0 0-.07-.09.43.43 0 0 0-.15.06l-.34.17-.33.09a.17.17 0 0 0-.14.18V34a.17.17 0 0 0 .17.16.23.23 0 0 0 .11 0 1.59 1.59 0 0 1 .15-.34l.36-.36.16-.26zm-1.91 1.29c-.12 0-.21.11-.21.27a2.08 2.08 0 0 0 .28.83c.28.55.37.65.55.65s.2-.07.34-.26l.17-.36a1.62 1.62 0 0 0 .4-.81c0-.16-.09-.29-.22-.29h-.12l-.2.09a1 1 0 0 1-.37.1.39.39 0 0 1-.2 0l-.24-.17a.24.24 0 0 0-.18 0zM7.92 6.34h-.2a.12.12 0 0 0-.08 0v.08l.07.37.07.33c0 .18.1.25.23.25s.25-.1.26-.3v-.69a.14.14 0 0 0-.05-.1.11.11 0 0 0-.08 0m28.76.06h-.19a.13.13 0 0 0-.07 0v.08l.08.37.06.33c0 .18.06.25.2.25a.3.3 0 0 0 .3-.3v-.69a.14.14 0 0 0 0-.1.11.11 0 0 0-.08 0M8.06 35.12h-.17c-.1 0-.15 0-.15.16a1.41 1.41 0 0 0 .29.68.13.13 0 0 0 .12.06c.1 0 .16-.19.22-.5v-.23c0-.1 0-.13-.11-.13"/><path class="cls-1" d="M36.12 35.32v.3a.28.28 0 0 0 .23.26c.14 0 .24-.21.3-.54v-.22c0-.04 0-.14-.18-.14h-.26c-.1 0-.14.07-.14.27"/><path class="cls-1" d="M11.28.25h29.96c1.27 0 3.36-.06 6.31-.18h1.11c-.17 2.29-.2 3-.2 4.2v25.41c0 11.87-2.65 15.67-15.27 21.9-.56.27-1.88.94-4 2-1.71.87-2.9 1.48-3.57 1.84l-.63.34-.65.34-.64-.34-.64-.34c-2.65-1.39-5.47-2.82-7.56-3.84C2.91 45.33.24 41.51.24 29.61V4.2A31.7 31.7 0 0 0 0 0l1.1.05C4 .17 6.17.23 7.43.23h2.64M1.35 1L1.11.9v18.52l.22-.05H19.1l.16.05V.87L19.1 1zm28.13 0h-.22v18.42l.2-.05h17.91l.17.05V.87h-.17zm-10.3 28.33H1.07v1.21c0 10 3.34 14.86 13.61 19.82L18 51.88l1.14.53.09.11V29.28h-.08zm10.2 0h-.12v23.14l.12-.14 1-.47c13.97-6.56 17.11-10.47 17.11-21.27v-1.31h-.16zM3.71 20.57l-.13.13.06.07.16.14.13.15.07.05v.83c-.06 0-.11.28-.11.62a1.31 1.31 0 0 1-.17.54 2 2 0 0 1-.57.83l-.24.19s-.08.07-.08.1.06.05.13.05h.89L4 25.32h.22l.17-1.18h.89l.14-.09-.14-.1a3.38 3.38 0 0 1-1.07-2.82v-.15l.05-.05.13-.15.16-.14.08-.07-.13-.13a.79.79 0 0 0-.15-.14 1.07 1.07 0 0 0-.13-.15l-.11-.13a3 3 0 0 1-.37.42zm6.14-.29l-.13.15a1.69 1.69 0 0 0-.14.14l-.13.13.06.07.16.14a1.9 1.9 0 0 1 .15.15v.88c-.05 0-.1.28-.1.62a1.29 1.29 0 0 1-.18.54c-.3.58-.35.67-.57.83l-.24.19a.15.15 0 0 0-.07.1s.05.06.11.06h.92l.16 1.18h.22l.16-1.18h.96a.08.08 0 0 0 .07-.09.31.31 0 0 0-.14-.1 2.93 2.93 0 0 1-1-2.14v-.83l.08-.05.14-.15.16-.14.06-.07-.13-.13a2.45 2.45 0 0 1-.37-.42l-.12.13zm-3.34 3.87l.08.06.15.15.14.13.06.07v.15a3.63 3.63 0 0 1-.89 2.67l-.24.19s-.08.07-.08.1 0 0 .11 0h.46l.28-.05h.16l.17 1.18h.23l.16-1.18h.16l.28.05h.46l.13-.09-.13-.1a3.27 3.27 0 0 1-1.08-2.82v-.22l.15-.13.14-.15.08-.06-.08-.1a1 1 0 0 1-.15-.15l-.11-.14-.15-.12a2.66 2.66 0 0 1-.52.56zm6.31-.42l-.11.14a1 1 0 0 1-.15.15l-.15.13.08.06.15.15.15.13.05.07v.15a3.71 3.71 0 0 1-.9 2.67l-.24.19a.15.15 0 0 0-.07.1h.59l.27-.05h.17l.16 1.18h.23l.16-1.18h.17l.27.05h.46l.13-.09-.15-.1-.18-.15-.32-.33a4.38 4.38 0 0 1-.59-2.29v-.15l.05-.07.15-.13.15-.15.08-.06a2.66 2.66 0 0 1-.52-.56l-.12.14zm2.95-3.45l-.13.15a1.69 1.69 0 0 0-.14.14l-.14.13a.3.3 0 0 1 .08.07l.15.14.15.15v.88c-.05 0-.1.28-.1.62a1.33 1.33 0 0 1-.18.54c-.28.56-.35.66-.57.83l-.24.19a.22.22 0 0 0-.07.1s.05.06.11.06h.92l.16 1.18H16l.16-1.18h.96s.06 0 .06-.09-.05-.06-.14-.1a3 3 0 0 1-1-2.14v-.83l.06-.05.13-.15.17-.14.06-.07-.13-.13a2.45 2.45 0 0 1-.37-.42 1.21 1.21 0 0 0-.12.13zm16.76 0l-.11.13-.15.17-.15.13.09.06.14.15.15.13v.21a3.31 3.31 0 0 1-1.08 2.81c-.09.05-.14.09-.14.14s.05 0 .14 0h.15a2.75 2.75 0 0 0 .75-.13l.16 1.18h.23l.16-1.18a3 3 0 0 0 .75.13h.28c0-.05 0-.09-.14-.14a3.31 3.31 0 0 1-1.08-2.81v-.23l.15-.13.15-.15.08-.06-.06-.13-.15-.17-.11-.13-.11-.14-.12.14zm5.94 0l-.14.13-.14.17-.15.13a3.13 3.13 0 0 1 .38.34l.06.07v.81c-.06 0-.11.28-.11.64a2.3 2.3 0 0 1-.41 1 1.67 1.67 0 0 1-.5.52c-.11 0-.15.08-.15.13s0 .06.21.06a2.65 2.65 0 0 0 .82-.13l.16 1.18h.23l.16-1.18a3 3 0 0 0 .75.13h.28c0-.05-.05-.09-.14-.14a3.35 3.35 0 0 1-1.08-2.81v-.23l.05-.07.15-.13.14-.15.08-.06-.12-.13-.14-.17-.13-.13-.12-.14-.09.14zM35.24 24a1.56 1.56 0 0 0-.13.13l.06.06.16.17.13.13.07.06v.82s-.1.28-.1.63a2.42 2.42 0 0 1-.43 1 1.73 1.73 0 0 1-.51.53c-.1 0-.14.07-.14.12s0 .07.21.07a2.59 2.59 0 0 0 .81-.13l.17 1.18h.22l.17-1.18a3 3 0 0 0 .75.13h.28c0-.05 0-.09-.14-.14a2.85 2.85 0 0 1-1-2.14v-.88l.15-.13.14-.17.08-.06A1.14 1.14 0 0 0 36 24l-.13-.16-.14-.15-.11-.13a2.52 2.52 0 0 1-.37.43zm6 0l-.13.13.07.06.16.17.13.13.07.06v.82c-.06 0-.1.28-.1.63a2.49 2.49 0 0 1-.43 1 1.72 1.72 0 0 1-.5.53c-.11 0-.14.07-.14.12s0 .07.2.07a2.66 2.66 0 0 0 .82-.13l.18 1.18h.21l.16-1.18a3 3 0 0 0 .75.13h.28c0-.05 0-.09-.14-.14a2.85 2.85 0 0 1-1-2.14v-.88l.15-.13.16-.17.07-.06L42 24l-.15-.15a1.24 1.24 0 0 1-.13-.15.88.88 0 0 1-.11-.13 2.24 2.24 0 0 1-.38.43zm3.23-3.73l-.13.13-.15.17-.13.13.07.06.16.15a1.43 1.43 0 0 1 .13.13l.07.07v.81c-.06 0-.12.28-.12.64a2.38 2.38 0 0 1-.4 1 1.68 1.68 0 0 1-.51.52c-.11 0-.15.08-.15.13s0 .06.22.06a2.54 2.54 0 0 0 .81-.13l.16 1.18h.23l.16-1.18a3 3 0 0 0 .75.13h.28c0-.05 0-.09-.14-.14a3.35 3.35 0 0 1-1.08-2.81v-.29l.15-.13.15-.15.08-.06-.13-.13-.15-.17-.13-.13-.11-.14-.1.14zm-23 16l-.14.15-.14.14-.13.14.08.06.15.15.14.14.05.07v.81c-.05 0-.1.29-.1.64a2.39 2.39 0 0 1-.42 1 1.67 1.67 0 0 1-.5.52c-.1 0-.14.09-.14.14s0 .06.14.06h.14a3 3 0 0 0 .75-.13l.17 1.17h.22l.17-1.17a2.84 2.84 0 0 0 .79.13c.2 0 .24 0 .24-.07s0-.08-.15-.13a1.55 1.55 0 0 1-.51-.52 3.61 3.61 0 0 1-.61-1.57v-.81l.07-.07.13-.14.16-.15.06-.06-.13-.14a2.51 2.51 0 0 1-.37-.42l-.11.13zm5.54 0l-.13.15-.15.14-.13.14.08.06.15.15.15.14v.88c-.06 0-.1.29-.1.64a2.55 2.55 0 0 1-.42 1 1.59 1.59 0 0 1-.51.52c-.09 0-.14.09-.14.14s.05.06.14.06h.15a3 3 0 0 0 .75-.13l.15 1.17h.23l.16-1.17a2.91 2.91 0 0 0 .8.13c.19 0 .23 0 .23-.07s0-.08-.15-.13a1.55 1.55 0 0 1-.5-.52 3.49 3.49 0 0 1-.55-1.57v-.81l.07-.07.13-.14.17-.15.06-.06-.13-.14a2.23 2.23 0 0 1-.38-.42l-.11.13zm-2.83 5.05l-.13.13-.14.16-.13.13.08.07.14.19.15.13.05.06v.82c-.05 0-.1.28-.1.63a2.34 2.34 0 0 1-.42 1 1.59 1.59 0 0 1-.51.52c-.09.06-.13.09-.13.14s.05.08.12.08h.9l.16 1.17h.22l.18-1.17h.89l.12-.05s0-.07-.14-.13a2.82 2.82 0 0 1-1-2.13v-.82l.06-.06.14-.13.16-.15.06-.07-.13-.13-.14-.16-.16-.11-.07-.17-.12.15zm-2.73 5.13l-.13.13-.15.16-.13.13.07.07.16.14.13.13.07.07v.81c-.06 0-.1.29-.1.64a2.64 2.64 0 0 1-.42 1 1.68 1.68 0 0 1-.51.52c-.11 0-.14.08-.14.12s0 .08.2.08a3.67 3.67 0 0 0 .82-.12l.16 1.16h.23l.16-1.16a4.78 4.78 0 0 0 .76.12h.27s0-.09-.14-.14a2.85 2.85 0 0 1-1-2.14v-.94l.15-.13.09-.1h.06l-.11-.16-.15-.16-.13-.13-.11-.15-.1.15zm5.56 0l-.13.13-.15.16-.13.13.08.07.15.14.15.13v.88c-.06 0-.1.29-.1.64a2.55 2.55 0 0 1-.42 1 1.59 1.59 0 0 1-.51.52c-.09 0-.14.09-.14.14s.05.06.14.06h.15a4.72 4.72 0 0 0 .75-.12l.15 1.16h.23l.16-1.16a3.75 3.75 0 0 0 .81.12c.18 0 .22 0 .22-.07s0-.08-.15-.13a1.65 1.65 0 0 1-.5-.52 3.49 3.49 0 0 1-.52-1.62v-.81a.22.22 0 0 0 .07-.07l.13-.13.17-.14.06-.07-.15-.11-.13-.18-.13-.13-.1-.15-.11.15zm-2.87-15.21l-.13.13-.14.17-.13.13.08.06.14.15.15.13.05.07v.81c-.05 0-.1.29-.1.64a2.39 2.39 0 0 1-.42 1 1.59 1.59 0 0 1-.51.52c-.09 0-.13.09-.13.14s0 0 .13 0h.15a4.18 4.18 0 0 0 .75-.11l.16 1.17h.22l.18-1.17a3.56 3.56 0 0 0 .81.11c.17 0 .21 0 .21-.07s0-.08-.14-.12a2.84 2.84 0 0 1-1-2.14v-.81L24.4 32l.14-.13.16-.15.06-.06-.13-.13-.14-.17-.13-.13-.1-.14-.12.14zM21.09 3.18a.78.78 0 0 0-.13.13l.06.06.16.15.13.14h.07v.82s-.1.28-.1.64a1.3 1.3 0 0 1-.18.53c-.3.59-.36.67-.57.83l-.24.19a.2.2 0 0 0-.07.11h1.03l.16 1.17h.2l.18-1.12h.9l.13-.09-.13-.11a.89.89 0 0 1-.18-.15l-.33-.37a3.37 3.37 0 0 1-.52-1.63v-.82h.05l.14-.14.17-.15-.02-.06-.13-.13-.16-.18-.13-.15-.12-.13a3 3 0 0 1-.37.43zm5.91-.3l-.16.12-.15.15a1.53 1.53 0 0 0-.13.13l.08.06a1 1 0 0 1 .15.15l.15.14v.82c-.05 0-.1.28-.1.64a1.3 1.3 0 0 1-.18.53c-.28.56-.35.66-.57.83l-.24.19a.2.2 0 0 0-.07.11h.57l.26-.1h.18L27 7.92h.23l.16-1.17h.96s.06 0 .06-.08-.05-.06-.14-.11a2.94 2.94 0 0 1-1-2.15v-.7h.06l.13-.14.17-.15.06-.06-.13-.13a2.58 2.58 0 0 1-.38-.43l-.18.08zm-2.87 4.86l-.13.15-.15.16-.13.13.07.07.21.15a1.37 1.37 0 0 1 .13.13l.06.06v.82c-.07 0-.12.28-.12.63a2.25 2.25 0 0 1-.41 1 1.47 1.47 0 0 1-.5.52c-.11.05-.15.09-.15.13s0 .07.22.07a2.59 2.59 0 0 0 .81-.13l.16 1.17h.23l.16-1.17a3 3 0 0 0 .75.13h.28s0-.09-.14-.15a2.93 2.93 0 0 1-1-2.18v-.77l.05-.06.15-.13.15-.15.08-.07-.13-.13-.15-.16-.13-.15-.11-.13-.1.13zm-2.8 4.85l-.11.15-.15.14a1.16 1.16 0 0 1-.15.13l.09.07.14.14.15.15.05.05v.15a3.58 3.58 0 0 1-.9 2.67l-.24.19a.22.22 0 0 0-.07.1s.05.06.11.06h.46l.28-.05h.16l.16 1.17h.23l.16-1.17h.17l.27.05h.46l.13-.09-.13-.11-.18-.15-.36-.42a4.43 4.43 0 0 1-.54-2.25v-.15l.05-.05.15-.15.15-.14L22 13l-.15-.13-.15-.14-.11-.15-.11-.13-.12.13zm5.35.29l-.13.13.06.07.17.14.13.15.06.05v.83c-.05 0-.09.28-.09.62a1.46 1.46 0 0 1-.18.54c-.3.58-.36.67-.58.83l-.24.19a.15.15 0 0 0-.07.1s0 .06.1.06h.47a4.2 4.2 0 0 1 .41-.13l.18 1.22h.23l.16-1.17h.16l.28.05h.46l.13-.09-.13-.11a2.85 2.85 0 0 1-1-2.14v-.83l.05-.05.15-.15.14-.14.08-.07-.12-.13-.15-.14-.13-.15-.12-.13a2.12 2.12 0 0 1-.37.42zm-8 15.41h1.53v3.12h1.78v-3.09h4.51v3.09h1.79v-3.09h1.52v-8H28v-.14a1 1 0 0 0-.83-.47.91.91 0 0 0-.82.56H25a.9.9 0 0 0-.84-.56.92.92 0 0 0-.88.56H22a.9.9 0 0 0-.86-.56.85.85 0 0 0-.83.56h-1.68v8z"/><path class="cls-1" d="M20.31 22.48a.47.47 0 1 0 .47.47.47.47 0 0 0-.47-.47m7.75 0a.47.47 0 1 0 0 .94.47.47 0 1 0 0-.94m-7.75 3.68a.47.47 0 0 0-.47.47.48.48 0 0 0 .49.47.46.46 0 0 0 .45-.47.47.47 0 0 0-.47-.47m7.75 0a.47.47 0 1 0 0 .94.47.47 0 1 0 0-.94m-3.89-2.51a3 3 0 0 1 2.34 1.09 2.77 2.77 0 0 1-2.29 1.19 3 3 0 0 1-2.44-1.19 3.06 3.06 0 0 1 2.39-1.09m0 1.9a2.41 2.41 0 0 0 1.89-.8 2.77 2.77 0 0 0-1.91-.75 2.92 2.92 0 0 0-1.9.73 2.66 2.66 0 0 0 1.89.81z"/><path class="cls-1" d="M23.05 24.58a2 2 0 0 0 2.21 0 2.56 2.56 0 0 0-1.12-.27 2.26 2.26 0 0 0-1.09.27m-2.35-3.74v1a.4.4 0 0 0 .42.4.38.38 0 0 0 .43-.4v-1c0-.37-.15-.6-.39-.6a.49.49 0 0 0-.19.05l-.11.06a.38.38 0 0 0-.09.13.39.39 0 0 0-.07.17m3.06.98v.18a.4.4 0 0 0 .41.4c.28 0 .43-.14.43-.4v-1c0-.37-.15-.6-.39-.6s-.45.23-.45.59m2.96.04v1a.4.4 0 0 0 .42.4.37.37 0 0 0 .42-.4v-1c0-.37-.15-.6-.39-.6a.54.54 0 0 0-.19.05l-.11.06a.6.6 0 0 0-.09.13.49.49 0 0 0-.06.17m-6.24 9.57h.93v-1.19h-.93v1.19zm0 .64h.93v-.38h-.93v.38zm6.3-.64h.92v-1.19h-.92v1.19zm0 .64h.92v-.38h-.92v.38z"/></g></g></svg>